# xmcd
#
# Track frame offsets:
#	150
#	15126
#	32159
#	52960
#	74671
#	91321
#	108879
#	128401
#	144668
#	157032
#	173966
#	190661
#	209222
#
# Disc length: 3089 seconds
#
# Revision: 0
# Processed by: cddbd v1.5.2PL0 Copyright (c) Steve Scherf et al.
# Submitted via: dBpowerAMP V4.0
#
DISCID=b00c0f0d
DTITLE=DMC 40 Aþk Þarkýsý Disc 3 - 40 Aþk Þarkýsý Disc 3
DYEAR=2007
DGENRE=Ballad
TTITLE0=MFÖ-Sarý laleler
TTITLE1=Ajda Pekkan-Sevdalý Baþým
TTITLE2=Zeynep Casalini-Dokunma Bana
TTITLE3=Mirkelam-Sevgi Dtanecikleri
TTITLE4=Nev-Zor
TTITLE5=Ýlhan Þeþen-Bu Sabah
TTITLE6=Ömür Göksel-Bir telefonun yeter
TTITLE7=Iþýl Yücesoy-Açýlmamýþ Mektupla
TTITLE8=Sefarad-Aman Aman
TTITLE9=Gönül yazar-Dönemezki Bana
TTITLE10=Emre Altu-Gel gel
TTITLE11=Enbe Orkestrasý-Gidersen Git
TTITLE12=Osman Ýþmen-The Silence The Night
EXTD=
EXTT0=
EXTT1=
EXTT2=
EXTT3=
EXTT4=
EXTT5=
EXTT6=
EXTT7=
EXTT8=
EXTT9=
EXTT10=
EXTT11=
EXTT12=
PLAYORDER=
